<?xml version="1.0" standalone="no"?>
<!DOCTYPE svg PUBLIC "-//W3C//DTD SVG 20010904//EN"
 "http://www.w3.org/TR/2001/REC-SVG-20010904/DTD/svg10.dtd">
<svg version="1.0" xmlns="http://www.w3.org/2000/svg"
 width="79.000000pt" height="79.000000pt" viewBox="0 0 79.000000 79.000000"
 preserveAspectRatio="xMidYMid meet">
<metadata>
Created by potrace 1.11, written by Peter Selinger 2001-2013
</metadata>
<g transform="translate(0.000000,79.000000) scale(0.100000,-0.100000)"
fill="#000000" stroke="none">
<path d="M359 780 c-1 -3 0 -9 1 -15 1 -5 -2 -7 -5 -3 -4 4 -17 2 -29 -4 -11
-7 -24 -11 -28 -10 -5 1 -8 -2 -8 -7 0 -5 -13 -14 -30 -21 -16 -7 -27 -16 -25
-21 3 -4 -7 -6 -22 -3 -15 3 -24 2 -20 -2 10 -11 -31 -36 -45 -28 -8 5 -9 2
-5 -10 4 -9 3 -14 -2 -11 -5 3 -12 1 -16 -5 -4 -6 -11 -8 -16 -5 -5 4 -9 1 -9
-4 0 -6 -9 -11 -21 -11 -15 0 -19 -4 -15 -16 5 -14 4 -15 -9 -4 -14 12 -16 -8
-15 -202 1 -157 5 -215 13 -215 26 -1 43 -9 72 -35 16 -16 38 -28 48 -28 24 0
68 -30 61 -41 -3 -5 2 -6 11 -2 10 3 20 1 24 -5 3 -6 13 -12 21 -14 8 -2 22
-10 30 -18 8 -8 21 -15 28 -16 28 -2 33 -4 28 -12 -2 -4 7 -9 20 -10 14 -1 23
1 21 6 -3 4 7 16 21 26 14 11 22 14 18 8 -11 -19 2 -14 24 8 12 12 25 18 30
15 6 -4 10 -1 10 5 0 6 4 9 9 6 5 -3 12 1 15 10 3 8 10 12 16 9 5 -3 10 -1 10
5 0 7 7 9 16 6 8 -3 13 -2 11 2 -3 4 1 13 9 20 11 10 14 10 14 0 0 -7 6 -4 13
6 7 9 19 16 27 14 9 -2 15 4 14 12 -1 9 7 17 17 18 11 1 26 2 33 3 23 3 18
424 -4 424 -8 0 -21 8 -28 18 -7 9 -22 17 -32 17 -10 0 -24 8 -29 18 -6 9 -11
13 -11 8 0 -5 -10 -1 -22 10 -14 13 -19 14 -14 4 5 -9 2 -8 -7 2 -8 10 -18 14
-22 10 -5 -4 -6 0 -3 8 4 11 -2 15 -20 17 -13 0 -27 5 -31 10 -3 5 -20 16 -38
23 -17 8 -29 18 -27 22 3 4 -2 5 -10 2 -9 -3 -16 -1 -16 5 0 10 -49 12 -51 1z"/>
</g>
</svg>
